<svg width="64" height="64" viewBox="0 0 64 64" fill="none" xmlns="http://www.w3.org/2000/svg">
<path d="M32 0C14.3253 0 0 14.3253 0 31.9999C0 48.5506 12.5677 62.1668 28.6808 63.8264C27.7077 55.8151 28.0698 49.2597 29.3069 43.8736C28.6129 40.5317 27.0363 35.5831 23.4606 32.0678C23.4606 32.0678 25.8142 35.5982 27.0891 40.3432C27.0891 40.3507 27.0967 40.3582 27.0967 40.3658C27.2324 40.8712 27.3531 41.3842 27.4587 41.9122C27.4814 42.0329 27.504 42.1536 27.5266 42.2819C27.6247 42.825 27.7152 43.3681 27.7756 43.9264C9.69354 41.7085 5.83876 25.4823 6.2612 19.3644C25.4974 20.4281 29.4352 33.2673 30.0085 41.2333C36.3074 20.6016 56.3206 19.4097 57.9727 19.3644C58.6893 35.2211 46.9288 47.585 32.8675 48.6637C32.958 48.2338 33.0637 47.8038 33.1693 47.3813C33.1994 47.2531 33.2372 47.1324 33.2749 47.0042C33.3579 46.7024 33.4408 46.4007 33.5389 46.0989C33.5766 45.9707 33.6219 45.8349 33.6596 45.7067C33.7652 45.3747 33.8784 45.0504 33.9915 44.7184C34.0217 44.643 34.0443 44.5676 34.0745 44.4921C34.2178 44.0999 34.3687 43.7227 34.5196 43.3455C34.5347 43.3153 34.5422 43.2776 34.5573 43.2474C34.5573 43.2474 34.5573 43.2474 34.5648 43.2474C38.1707 34.527 44.8241 28.8165 44.8241 28.8165C31.7661 36.3601 29.5634 55.9735 29.2164 63.8565C30.1367 63.9395 31.057 63.9999 32 63.9999C49.6747 63.9999 64 49.6746 64 31.9999C64 14.3253 49.6747 0 32 0Z" fill="#46A358"/>
</svg>
