<svg width="90" height="59" viewBox="0 0 90 59" fill="none" xmlns="http://www.w3.org/2000/svg">
<path d="M82.5213 16.8284L32.415 30.2541" stroke="#8BAC3E" stroke-width="3.01762" stroke-linecap="round" stroke-linejoin="round"/>
<path d="M83.8759 21.9267L74.1414 24.552C73.4753 24.7307 72.7805 24.7764 72.0968 24.6865C71.4131 24.5966 70.7537 24.3729 70.1564 24.0282C69.5592 23.6835 69.0356 23.2245 68.6158 22.6774C68.1959 22.1304 67.8879 21.5059 67.7094 20.8398C67.5307 20.1738 67.485 19.479 67.5749 18.7953C67.6648 18.1115 67.8884 17.4522 68.2332 16.8549C68.5779 16.2576 69.0369 15.7341 69.5839 15.3142C70.131 14.8944 70.7554 14.5864 71.4216 14.4079L75.2912 13.3578C76.0661 13.153 76.7929 12.7971 77.4297 12.3105C78.0666 11.8238 78.6009 11.2161 79.002 10.5222C79.4031 9.82831 79.6631 9.06197 79.7669 8.26724C79.8708 7.47252 79.8165 6.6651 79.6072 5.89144C79.4287 5.22532 79.1207 4.6009 78.7008 4.05382C78.281 3.50675 77.7574 3.04775 77.1602 2.70304C76.5629 2.35832 75.9036 2.13464 75.2198 2.04477C74.5361 1.95491 73.8413 2.00061 73.1752 2.17928L24.87 15.1272C24.2038 15.3057 23.5794 15.6137 23.0323 16.0336C22.4853 16.4534 22.0263 16.977 21.6816 17.5742C21.3368 18.1715 21.1132 18.8309 21.0233 19.5146C20.9334 20.1983 20.9791 20.8931 21.1578 21.5592L22.901 28.1801C23.0755 28.8326 23.1107 29.5144 23.0043 30.1814C22.8978 30.8483 22.652 31.4853 22.283 32.051C21.914 32.6166 21.43 33.0982 20.8625 33.4644C20.295 33.8306 19.6568 34.0732 18.9893 34.1763L7.28579 35.9772C6.43733 36.0844 5.62129 36.3705 4.8916 36.8165C4.16192 37.2625 3.5352 37.8583 3.05288 38.5645C2.57055 39.2707 2.24361 40.0713 2.09365 40.9132C1.94368 41.7552 1.97411 42.6193 2.18293 43.4487C2.39176 44.278 2.77423 45.0535 3.30504 45.724C3.83585 46.3946 4.50292 46.9448 5.26218 47.3384C6.02143 47.7319 6.85557 47.9599 7.70946 48.0071C8.56335 48.0544 9.41755 47.9199 10.2156 47.6125L21.4256 43.2545C22.0549 43.0094 22.7288 42.8997 23.4034 42.9326C24.0779 42.9655 24.738 43.1402 25.3405 43.4454C25.9429 43.7506 26.4743 44.1794 26.8999 44.7038C27.3254 45.2282 27.6356 45.8365 27.8103 46.4889L29.585 53.1099C29.9456 54.454 30.825 55.6 32.03 56.296C33.2351 56.9921 34.6672 57.1813 36.0117 56.822L84.3327 43.8688C85.6768 43.5083 86.8228 42.6288 87.5189 41.4238C88.2149 40.2187 88.4041 38.7866 88.0449 37.4421L87.9136 36.9486L87.1155 34.003C86.9853 33.5134 86.7594 33.0544 86.4509 32.6526C86.1425 32.2507 85.7575 31.9139 85.3182 31.6615C84.8789 31.4091 84.3939 31.2463 83.8914 31.1822C83.3888 31.1182 82.8785 31.1543 82.39 31.2885L36.0274 43.7113C36.0274 43.7113 39.0203 34.0765 62.5586 27.7706L64.7638 36.014" stroke="#8BAC3E" stroke-width="3.01762" stroke-linecap="round" stroke-linejoin="round"/>
</svg>
