<svg width="226" height="42" viewBox="0 0 226 42" fill="none" xmlns="http://www.w3.org/2000/svg">
<path d="M79.7332 31.251C78.1773 31.251 76.8556 30.9833 75.7681 30.4479C74.6974 29.8958 73.8776 29.1178 73.3088 28.114C72.74 27.0935 72.4221 25.8722 72.3552 24.4501C72.3384 23.7641 72.3301 23.028 72.3301 22.2417C72.3301 21.4554 72.3384 20.7025 72.3552 19.9831C72.4221 18.5778 72.74 17.3648 73.3088 16.3443C73.8943 15.3237 74.7225 14.5458 75.7932 14.0104C76.8807 13.4583 78.194 13.1822 79.7332 13.1822C80.8709 13.1822 81.8914 13.3328 82.7949 13.634C83.6983 13.9351 84.4679 14.3534 85.1036 14.8887C85.7394 15.4074 86.2329 16.018 86.5843 16.7207C86.9356 17.4234 87.1196 18.1846 87.1364 19.0044C87.1531 19.155 87.1029 19.2804 86.9858 19.3808C86.8854 19.4812 86.7599 19.5314 86.6094 19.5314H84.2253C84.0413 19.5314 83.8907 19.4896 83.7736 19.4059C83.6565 19.3055 83.5728 19.1466 83.5226 18.9291C83.2549 17.8249 82.7949 17.072 82.1424 16.6705C81.4899 16.269 80.6785 16.0682 79.7081 16.0682C78.5872 16.0682 77.6921 16.3861 77.0229 17.0218C76.3537 17.6409 75.994 18.6698 75.9438 20.1086C75.8936 21.4805 75.8936 22.8858 75.9438 24.3246C75.994 25.7634 76.3537 26.8007 77.0229 27.4364C77.6921 28.0555 78.5872 28.365 79.7081 28.365C80.6785 28.365 81.4899 28.1642 82.1424 27.7627C82.7949 27.3444 83.2549 26.5916 83.5226 25.5041C83.5728 25.2699 83.6565 25.1109 83.7736 25.0273C83.8907 24.9436 84.0413 24.9018 84.2253 24.9018H86.6094C86.7599 24.9018 86.8854 24.952 86.9858 25.0524C87.1029 25.1528 87.1531 25.2782 87.1364 25.4288C87.1196 26.2486 86.9356 27.0098 86.5843 27.7125C86.2329 28.4152 85.7394 29.0342 85.1036 29.5696C84.4679 30.0882 83.6983 30.4981 82.7949 30.7992C81.8914 31.1004 80.8709 31.251 79.7332 31.251ZM90.4388 31C90.2715 31 90.1293 30.9414 90.0121 30.8243C89.895 30.7072 89.8365 30.565 89.8365 30.3977V13.7845C89.8365 13.6172 89.895 13.475 90.0121 13.3579C90.1293 13.2408 90.2715 13.1822 90.4388 13.1822H92.6723C92.8563 13.1822 92.9985 13.2408 93.0989 13.3579C93.216 13.475 93.2746 13.6172 93.2746 13.7845V19.5063C93.7263 18.9709 94.2784 18.5359 94.9309 18.2013C95.5833 17.8667 96.3864 17.6994 97.34 17.6994C98.3606 17.6994 99.2473 17.9336 100 18.4021C100.77 18.8538 101.364 19.4979 101.782 20.3344C102.2 21.171 102.409 22.1748 102.409 23.3459V30.3977C102.409 30.565 102.351 30.7072 102.234 30.8243C102.117 30.9414 101.974 31 101.807 31H99.5484C99.3811 31 99.2389 30.9414 99.1218 30.8243C99.0047 30.7072 98.9461 30.565 98.9461 30.3977V23.4965C98.9461 22.5261 98.7035 21.7649 98.2184 21.2128C97.7499 20.6607 97.064 20.3846 96.1605 20.3846C95.2906 20.3846 94.5879 20.6607 94.0525 21.2128C93.5339 21.7649 93.2746 22.5261 93.2746 23.4965V30.3977C93.2746 30.565 93.216 30.7072 93.0989 30.8243C92.9985 30.9414 92.8563 31 92.6723 31H90.4388ZM111.215 31.251C109.358 31.251 107.886 30.7156 106.799 29.6448C105.711 28.5741 105.126 27.0517 105.042 25.0775C105.025 24.9102 105.017 24.701 105.017 24.4501C105.017 24.1824 105.025 23.9733 105.042 23.8227C105.109 22.5679 105.393 21.4805 105.895 20.5603C106.414 19.6401 107.125 18.9375 108.028 18.4523C108.932 17.9504 109.994 17.6994 111.215 17.6994C112.571 17.6994 113.708 17.9838 114.628 18.5527C115.549 19.1048 116.243 19.8827 116.711 20.8865C117.18 21.8736 117.414 23.0197 117.414 24.3246V24.8516C117.414 25.0189 117.355 25.1611 117.238 25.2782C117.121 25.3954 116.971 25.4539 116.787 25.4539H108.455C108.455 25.4539 108.455 25.479 108.455 25.5292C108.455 25.5794 108.455 25.6212 108.455 25.6547C108.472 26.2402 108.58 26.784 108.781 27.2859C108.999 27.7711 109.308 28.1642 109.71 28.4654C110.128 28.7665 110.622 28.9171 111.19 28.9171C111.659 28.9171 112.052 28.8502 112.37 28.7163C112.688 28.5657 112.947 28.3984 113.148 28.2144C113.349 28.0304 113.491 27.8798 113.574 27.7627C113.725 27.5619 113.842 27.4448 113.926 27.4114C114.026 27.3612 114.168 27.3361 114.352 27.3361H116.511C116.678 27.3361 116.812 27.3863 116.912 27.4866C117.029 27.587 117.079 27.7125 117.063 27.8631C117.046 28.1308 116.904 28.457 116.636 28.8418C116.385 29.2266 116.017 29.603 115.532 29.9711C115.047 30.3392 114.436 30.6487 113.7 30.8996C112.98 31.1338 112.152 31.251 111.215 31.251ZM108.455 23.3459H114.001V23.2706C114.001 22.6181 113.892 22.0493 113.675 21.5641C113.457 21.0789 113.139 20.6941 112.721 20.4097C112.303 20.1253 111.801 19.9831 111.215 19.9831C110.63 19.9831 110.128 20.1253 109.71 20.4097C109.291 20.6941 108.974 21.0789 108.756 21.5641C108.555 22.0493 108.455 22.6181 108.455 23.2706V23.3459ZM121.963 31C121.796 31 121.653 30.9414 121.536 30.8243C121.419 30.7072 121.361 30.565 121.361 30.3977V20.6105H119.328C119.161 20.6105 119.018 20.5519 118.901 20.4348C118.784 20.3177 118.726 20.1755 118.726 20.0082V18.5527C118.726 18.3854 118.784 18.2432 118.901 18.126C119.018 18.0089 119.161 17.9504 119.328 17.9504H121.361V16.9215C121.361 15.9176 121.545 15.0895 121.913 14.437C122.281 13.7678 122.825 13.2659 123.544 12.9313C124.263 12.5967 125.175 12.4294 126.279 12.4294H127.986C128.17 12.4294 128.312 12.4879 128.412 12.605C128.53 12.7222 128.588 12.8644 128.588 13.0317V14.4872C128.588 14.6545 128.53 14.7967 128.412 14.9138C128.312 15.0309 128.17 15.0895 127.986 15.0895H126.38C125.711 15.0895 125.25 15.2568 124.999 15.5914C124.749 15.926 124.623 16.4112 124.623 17.0469V17.9504H127.735C127.919 17.9504 128.061 18.0089 128.162 18.126C128.279 18.2432 128.337 18.3854 128.337 18.5527V20.0082C128.337 20.1755 128.279 20.3177 128.162 20.4348C128.061 20.5519 127.919 20.6105 127.735 20.6105H124.623V30.3977C124.623 30.565 124.565 30.7072 124.447 30.8243C124.33 30.9414 124.188 31 124.021 31H121.963ZM131.275 31C131.091 31 130.94 30.9414 130.823 30.8243C130.706 30.7072 130.648 30.565 130.648 30.3977V14.0606C130.648 13.8765 130.706 13.726 130.823 13.6089C130.94 13.4917 131.091 13.4332 131.275 13.4332H133.257C133.492 13.4332 133.667 13.5001 133.784 13.634C133.902 13.7511 133.977 13.8431 134.01 13.91L138.854 22.9444L143.747 13.91C143.781 13.8431 143.856 13.7511 143.973 13.634C144.09 13.5001 144.266 13.4332 144.5 13.4332H146.458C146.642 13.4332 146.792 13.4917 146.909 13.6089C147.026 13.726 147.085 13.8765 147.085 14.0606V30.3977C147.085 30.565 147.026 30.7072 146.909 30.8243C146.792 30.9414 146.642 31 146.458 31H144.35C144.166 31 144.015 30.9414 143.898 30.8243C143.798 30.7072 143.747 30.565 143.747 30.3977V19.5314L140.234 26.2319C140.15 26.3824 140.042 26.5163 139.908 26.6334C139.774 26.7338 139.598 26.784 139.381 26.784H138.352C138.118 26.784 137.934 26.7338 137.8 26.6334C137.683 26.5163 137.582 26.3824 137.499 26.2319L133.985 19.5314V30.3977C133.985 30.565 133.927 30.7072 133.81 30.8243C133.692 30.9414 133.55 31 133.383 31H131.275ZM154.477 31.251C153.607 31.251 152.821 31.0837 152.118 30.749C151.415 30.3977 150.855 29.9376 150.436 29.3688C150.035 28.7832 149.834 28.1308 149.834 27.4114C149.834 26.2402 150.303 25.3117 151.24 24.6258C152.193 23.9231 153.448 23.4546 155.004 23.2204L158.442 22.7185V22.1915C158.442 21.4888 158.266 20.9451 157.915 20.5603C157.564 20.1755 156.961 19.9831 156.108 19.9831C155.506 19.9831 155.012 20.1086 154.627 20.3595C154.259 20.5938 153.983 20.9116 153.799 21.3132C153.665 21.5307 153.473 21.6394 153.222 21.6394H151.24C151.055 21.6394 150.913 21.5892 150.813 21.4888C150.729 21.3884 150.687 21.2546 150.687 21.0873C150.704 20.8196 150.813 20.4934 151.014 20.1086C151.214 19.7238 151.532 19.3557 151.967 19.0044C152.402 18.6363 152.963 18.3268 153.649 18.0758C154.335 17.8249 155.163 17.6994 156.133 17.6994C157.187 17.6994 158.074 17.8333 158.793 18.1009C159.529 18.3519 160.115 18.6949 160.55 19.1299C160.985 19.5648 161.303 20.0751 161.504 20.6607C161.704 21.2462 161.805 21.8653 161.805 22.5177V30.3977C161.805 30.565 161.746 30.7072 161.629 30.8243C161.512 30.9414 161.37 31 161.202 31H159.17C158.986 31 158.835 30.9414 158.718 30.8243C158.618 30.7072 158.567 30.565 158.567 30.3977V29.419C158.35 29.7369 158.057 30.038 157.689 30.3224C157.321 30.5901 156.869 30.816 156.334 31C155.815 31.1673 155.196 31.251 154.477 31.251ZM155.33 28.8669C155.916 28.8669 156.443 28.7414 156.911 28.4905C157.396 28.2395 157.773 27.8547 158.04 27.3361C158.325 26.8007 158.467 26.1315 158.467 25.3284V24.8014L155.957 25.203C154.97 25.3535 154.234 25.5961 153.749 25.9307C153.264 26.2653 153.021 26.6752 153.021 27.1604C153.021 27.5285 153.13 27.8463 153.348 28.114C153.582 28.365 153.875 28.5574 154.226 28.6912C154.577 28.8083 154.945 28.8669 155.33 28.8669ZM169.968 31.251C168.964 31.251 168.103 31.1338 167.383 30.8996C166.68 30.6654 166.103 30.3726 165.652 30.0213C165.2 29.6699 164.865 29.3186 164.648 28.9673C164.43 28.6159 164.313 28.3232 164.296 28.0889C164.28 27.9049 164.33 27.7627 164.447 27.6623C164.581 27.5452 164.723 27.4866 164.874 27.4866H166.856C166.923 27.4866 166.982 27.495 167.032 27.5117C167.082 27.5285 167.149 27.5787 167.233 27.6623C167.45 27.8463 167.676 28.0387 167.91 28.2395C168.161 28.4403 168.454 28.6159 168.788 28.7665C169.123 28.9003 169.541 28.9673 170.043 28.9673C170.696 28.9673 171.239 28.8418 171.674 28.5908C172.126 28.3232 172.352 27.9467 172.352 27.4615C172.352 27.1102 172.252 26.8258 172.051 26.6083C171.867 26.3908 171.516 26.1984 170.997 26.0311C170.478 25.8471 169.742 25.6547 168.788 25.4539C167.852 25.2364 167.074 24.9604 166.455 24.6258C165.836 24.2912 165.376 23.8729 165.074 23.371C164.773 22.8691 164.623 22.2835 164.623 21.6143C164.623 20.9618 164.815 20.3428 165.2 19.7572C165.601 19.155 166.187 18.6614 166.957 18.2766C167.743 17.8918 168.713 17.6994 169.868 17.6994C170.771 17.6994 171.557 17.8165 172.227 18.0508C172.896 18.2682 173.448 18.5443 173.883 18.8789C174.335 19.2135 174.678 19.5565 174.912 19.9078C175.146 20.2424 175.271 20.5352 175.288 20.7862C175.305 20.9702 175.255 21.1208 175.138 21.2379C175.021 21.3383 174.887 21.3884 174.736 21.3884H172.879C172.795 21.3884 172.72 21.3717 172.653 21.3383C172.586 21.3048 172.519 21.263 172.452 21.2128C172.268 21.0455 172.068 20.8698 171.85 20.6858C171.633 20.5017 171.365 20.3428 171.047 20.209C170.746 20.0584 170.344 19.9831 169.842 19.9831C169.207 19.9831 168.722 20.1253 168.387 20.4097C168.052 20.6774 167.885 21.0204 167.885 21.4386C167.885 21.7231 167.96 21.974 168.111 22.1915C168.278 22.3923 168.604 22.5847 169.09 22.7687C169.575 22.9527 170.311 23.1451 171.298 23.3459C172.419 23.5467 173.306 23.8478 173.958 24.2493C174.627 24.6341 175.096 25.0858 175.363 25.6045C175.648 26.1064 175.79 26.6669 175.79 27.2859C175.79 28.0387 175.564 28.7163 175.113 29.3186C174.678 29.9209 174.025 30.3977 173.155 30.749C172.302 31.0837 171.239 31.251 169.968 31.251ZM184.229 31C183.225 31 182.38 30.8243 181.694 30.473C181.008 30.1217 180.498 29.603 180.164 28.9171C179.829 28.2144 179.662 27.3444 179.662 26.3072V20.6105H177.679C177.512 20.6105 177.37 20.5519 177.253 20.4348C177.135 20.3177 177.077 20.1755 177.077 20.0082V18.5527C177.077 18.3854 177.135 18.2432 177.253 18.126C177.37 18.0089 177.512 17.9504 177.679 17.9504H179.662V13.7845C179.662 13.6172 179.712 13.475 179.812 13.3579C179.929 13.2408 180.08 13.1822 180.264 13.1822H182.297C182.464 13.1822 182.606 13.2408 182.723 13.3579C182.84 13.475 182.899 13.6172 182.899 13.7845V17.9504H186.036C186.203 17.9504 186.345 18.0089 186.463 18.126C186.58 18.2432 186.638 18.3854 186.638 18.5527V20.0082C186.638 20.1755 186.58 20.3177 186.463 20.4348C186.345 20.5519 186.203 20.6105 186.036 20.6105H182.899V26.0562C182.899 26.7421 183.016 27.2775 183.25 27.6623C183.501 28.0471 183.928 28.2395 184.53 28.2395H186.262C186.429 28.2395 186.571 28.2981 186.688 28.4152C186.806 28.5323 186.864 28.6745 186.864 28.8418V30.3977C186.864 30.565 186.806 30.7072 186.688 30.8243C186.571 30.9414 186.429 31 186.262 31H184.229ZM194.712 31.251C192.855 31.251 191.382 30.7156 190.295 29.6448C189.207 28.5741 188.622 27.0517 188.538 25.0775C188.521 24.9102 188.513 24.701 188.513 24.4501C188.513 24.1824 188.521 23.9733 188.538 23.8227C188.605 22.5679 188.89 21.4805 189.391 20.5603C189.91 19.6401 190.621 18.9375 191.525 18.4523C192.428 17.9504 193.49 17.6994 194.712 17.6994C196.067 17.6994 197.204 17.9838 198.125 18.5527C199.045 19.1048 199.739 19.8827 200.208 20.8865C200.676 21.8736 200.91 23.0197 200.91 24.3246V24.8516C200.91 25.0189 200.852 25.1611 200.735 25.2782C200.617 25.3954 200.467 25.4539 200.283 25.4539H191.951C191.951 25.4539 191.951 25.479 191.951 25.5292C191.951 25.5794 191.951 25.6212 191.951 25.6547C191.968 26.2402 192.077 26.784 192.277 27.2859C192.495 27.7711 192.804 28.1642 193.206 28.4654C193.624 28.7665 194.118 28.9171 194.687 28.9171C195.155 28.9171 195.548 28.8502 195.866 28.7163C196.184 28.5657 196.443 28.3984 196.644 28.2144C196.845 28.0304 196.987 27.8798 197.071 27.7627C197.221 27.5619 197.338 27.4448 197.422 27.4114C197.522 27.3612 197.665 27.3361 197.849 27.3361H200.007C200.174 27.3361 200.308 27.3863 200.408 27.4866C200.525 27.587 200.576 27.7125 200.559 27.8631C200.542 28.1308 200.4 28.457 200.132 28.8418C199.881 29.2266 199.513 29.603 199.028 29.9711C198.543 30.3392 197.932 30.6487 197.196 30.8996C196.477 31.1338 195.649 31.251 194.712 31.251ZM191.951 23.3459H197.497V23.2706C197.497 22.6181 197.389 22.0493 197.171 21.5641C196.954 21.0789 196.636 20.6941 196.217 20.4097C195.799 20.1253 195.297 19.9831 194.712 19.9831C194.126 19.9831 193.624 20.1253 193.206 20.4097C192.788 20.6941 192.47 21.0789 192.252 21.5641C192.052 22.0493 191.951 22.6181 191.951 23.2706V23.3459ZM204.176 31C204.009 31 203.867 30.9414 203.75 30.8243C203.633 30.7072 203.574 30.565 203.574 30.3977V18.5778C203.574 18.3937 203.633 18.2432 203.75 18.126C203.867 18.0089 204.009 17.9504 204.176 17.9504H206.209C206.376 17.9504 206.519 18.0089 206.636 18.126C206.77 18.2432 206.836 18.3937 206.836 18.5778V19.6067C207.221 19.0713 207.715 18.6614 208.317 18.377C208.936 18.0926 209.647 17.9504 210.45 17.9504H211.479C211.663 17.9504 211.805 18.0089 211.906 18.126C212.023 18.2432 212.081 18.3854 212.081 18.5527V20.3595C212.081 20.5268 212.023 20.669 211.906 20.7862C211.805 20.9033 211.663 20.9618 211.479 20.9618H209.522C208.719 20.9618 208.091 21.1877 207.64 21.6394C207.205 22.0911 206.987 22.7101 206.987 23.4965V30.3977C206.987 30.565 206.929 30.7072 206.811 30.8243C206.694 30.9414 206.544 31 206.36 31H204.176ZM218.983 31.251C217.979 31.251 217.117 31.1338 216.398 30.8996C215.695 30.6654 215.118 30.3726 214.666 30.0213C214.214 29.6699 213.88 29.3186 213.662 28.9673C213.445 28.6159 213.328 28.3232 213.311 28.0889C213.294 27.9049 213.344 27.7627 213.462 27.6623C213.595 27.5452 213.738 27.4866 213.888 27.4866H215.871C215.938 27.4866 215.996 27.495 216.046 27.5117C216.097 27.5285 216.163 27.5787 216.247 27.6623C216.465 27.8463 216.69 28.0387 216.925 28.2395C217.176 28.4403 217.468 28.6159 217.803 28.7665C218.138 28.9003 218.556 28.9673 219.058 28.9673C219.71 28.9673 220.254 28.8418 220.689 28.5908C221.141 28.3232 221.367 27.9467 221.367 27.4615C221.367 27.1102 221.266 26.8258 221.065 26.6083C220.881 26.3908 220.53 26.1984 220.011 26.0311C219.493 25.8471 218.757 25.6547 217.803 25.4539C216.866 25.2364 216.088 24.9604 215.469 24.6258C214.85 24.2912 214.39 23.8729 214.089 23.371C213.788 22.8691 213.637 22.2835 213.637 21.6143C213.637 20.9618 213.83 20.3428 214.214 19.7572C214.616 19.155 215.201 18.6614 215.971 18.2766C216.757 17.8918 217.728 17.6994 218.882 17.6994C219.786 17.6994 220.572 17.8165 221.241 18.0508C221.91 18.2682 222.462 18.5443 222.897 18.8789C223.349 19.2135 223.692 19.5565 223.926 19.9078C224.161 20.2424 224.286 20.5352 224.303 20.7862C224.319 20.9702 224.269 21.1208 224.152 21.2379C224.035 21.3383 223.901 21.3884 223.751 21.3884H221.894C221.81 21.3884 221.735 21.3717 221.668 21.3383C221.601 21.3048 221.534 21.263 221.467 21.2128C221.283 21.0455 221.082 20.8698 220.865 20.6858C220.647 20.5017 220.379 20.3428 220.062 20.209C219.76 20.0584 219.359 19.9831 218.857 19.9831C218.221 19.9831 217.736 20.1253 217.401 20.4097C217.067 20.6774 216.9 21.0204 216.9 21.4386C216.9 21.7231 216.975 21.974 217.125 22.1915C217.293 22.3923 217.619 22.5847 218.104 22.7687C218.589 22.9527 219.325 23.1451 220.313 23.3459C221.433 23.5467 222.32 23.8478 222.973 24.2493C223.642 24.6341 224.11 25.0858 224.378 25.6045C224.662 26.1064 224.805 26.6669 224.805 27.2859C224.805 28.0387 224.579 28.7163 224.127 29.3186C223.692 29.9209 223.04 30.3977 222.17 30.749C221.316 31.0837 220.254 31.251 218.983 31.251Z" fill="#8BAC3E"/>
<path d="M58.0325 12.3186L23.165 21.6612" stroke="#8BAC3E" stroke-width="2.52101" stroke-linecap="round" stroke-linejoin="round"/>
<path d="M58.9751 15.8664L52.2011 17.6933C51.7376 17.8176 51.2541 17.8494 50.7783 17.7869C50.3025 17.7243 49.8437 17.5687 49.4281 17.3288C49.0125 17.0889 48.6482 16.7695 48.356 16.3888C48.0638 16.0081 47.8495 15.5736 47.7253 15.1101C47.6009 14.6466 47.5691 14.1631 47.6317 13.6873C47.6942 13.2115 47.8499 12.7527 48.0897 12.3371C48.3296 11.9215 48.649 11.5572 49.0297 11.265C49.4104 10.9728 49.8449 10.7585 50.3085 10.6343L53.0013 9.90353C53.5405 9.76106 54.0462 9.51339 54.4894 9.17475C54.9325 8.83612 55.3043 8.41321 55.5835 7.93035C55.8626 7.4475 56.0435 6.91422 56.1158 6.36119C56.188 5.80817 56.1503 5.24631 56.0046 4.70794C55.8804 4.24441 55.6661 3.80989 55.3739 3.4292C55.0817 3.04851 54.7174 2.7291 54.3018 2.48922C53.8862 2.24934 53.4273 2.09369 52.9516 2.03116C52.4758 1.96862 51.9923 2.00043 51.5288 2.12476L17.9145 11.1348C17.451 11.2591 17.0165 11.4734 16.6358 11.7656C16.2551 12.0577 15.9357 12.422 15.6958 12.8377C15.4559 13.2533 15.3003 13.7121 15.2378 14.1879C15.1752 14.6637 15.207 15.1472 15.3314 15.6107L16.5444 20.218C16.6659 20.672 16.6903 21.1465 16.6163 21.6106C16.5422 22.0747 16.3712 22.518 16.1144 22.9116C15.8576 23.3052 15.5208 23.6404 15.1259 23.8952C14.731 24.15 14.2868 24.3188 13.8224 24.3905L5.67823 25.6438C5.08781 25.7184 4.51995 25.9174 4.01218 26.2278C3.50442 26.5382 3.0683 26.9528 2.73267 27.4442C2.39703 27.9356 2.16952 28.4927 2.06517 29.0786C1.96081 29.6645 1.98198 30.2658 2.1273 30.8429C2.27261 31.42 2.53876 31.9597 2.90814 32.4263C3.27752 32.8929 3.74171 33.2758 4.27006 33.5497C4.7984 33.8235 5.37885 33.9822 5.97305 34.015C6.56725 34.0479 7.16166 33.9543 7.717 33.7404L15.5177 30.7078C15.9556 30.5373 16.4246 30.4609 16.894 30.4838C17.3634 30.5067 17.8227 30.6283 18.2419 30.8407C18.6612 31.053 19.031 31.3514 19.3271 31.7164C19.6232 32.0813 19.8391 32.5045 19.9606 32.9585L21.1956 37.5659C21.4465 38.5012 22.0585 39.2987 22.897 39.783C23.7356 40.2674 24.7322 40.3991 25.6677 40.1491L59.293 31.1353C60.2283 30.8844 61.0258 30.2724 61.5101 29.4339C61.9945 28.5953 62.1261 27.5987 61.8761 26.6632L61.7848 26.3197L61.2294 24.27C61.1388 23.9293 60.9816 23.6099 60.767 23.3302C60.5523 23.0506 60.2844 22.8162 59.9787 22.6406C59.673 22.465 59.3356 22.3516 58.9858 22.3071C58.6361 22.2625 58.281 22.2876 57.9411 22.381L25.6787 31.0257C25.6787 31.0257 27.7613 24.3211 44.141 19.933L45.6755 25.6694" stroke="#8BAC3E" stroke-width="2.52101" stroke-linecap="round" stroke-linejoin="round"/>
</svg>
